# This file uses centimeters as units for non-parametric coordinates.

mtllib spidercombined.mtl
g default
v -3.237185 0.184884 0.349139
v -3.074616 0.027265 0.368539
v -1.659295 1.809146 0.323335
v -1.496727 1.651527 0.342735
v -1.647177 1.793776 0.096916
v -1.484608 1.636157 0.116316
v -3.225066 0.169515 0.122721
v -3.062498 0.011896 0.142121
v 1.575006 0.103695 -2.576706
v 1.559408 -0.024729 -2.389857
v 0.433488 1.758766 -1.534446
v 0.417890 1.630342 -1.347597
v 0.629148 1.845770 -1.458313
v 0.613550 1.717346 -1.271464
v 1.770665 0.190700 -2.500573
v 1.755067 0.062276 -2.313725
v -3.055994 0.205939 1.744847
v -2.888456 0.054798 1.771977
v -1.529463 1.817670 1.296902
v -1.361925 1.666528 1.324032
v -1.540050 1.766244 1.075788
v -1.372513 1.615102 1.102917
v -3.066581 0.154513 1.523732
v -2.899044 0.003372 1.550862
v -2.957864 0.179259 -1.200484
v -2.796481 0.019997 -1.185006
v -1.427213 1.777145 -0.718304
v -1.265830 1.617882 -0.702826
v -1.382383 1.801045 -0.939816
v -1.221000 1.641782 -0.924338
v -2.913034 0.203159 -1.421996
v -2.751651 0.043897 -1.406518
v -1.934455 0.103695 -2.394593
v -1.747386 -0.024729 -2.381906
v -0.874546 1.758766 -1.269443
v -0.687477 1.630342 -1.256757
v -0.801469 1.845770 -1.466264
v -0.614400 1.717346 -1.453578
v -1.861378 0.190700 -2.591414
v -1.674309 0.062276 -2.578727
v -0.696933 1.953336 2.991216
v 0.696933 1.953336 2.991216
v -0.696933 2.884321 2.991216
v 0.696933 2.884321 2.991216
v -0.696933 2.884321 1.597350
v 0.696933 2.884321 1.597350
v -0.696933 1.953336 1.597350
v 0.696933 1.953336 1.597350
v -0.940859 3.047244 2.294283
v 0.940859 2.418829 1.353424
v 0.000000 1.790413 1.353424
v -0.940859 2.418829 1.353424
v 0.940859 1.790413 2.294283
v -0.940859 1.790413 2.294283
v 0.000000 1.790413 3.235142
v 0.940859 2.418829 3.235142
v 0.000000 3.047244 3.235142
v -0.940859 2.418829 3.235142
v 0.940859 3.047244 2.294283
v 0.000000 3.047244 1.353424
v 0.000000 2.418829 3.548762
v 0.000000 3.256716 2.294283
v 0.000000 2.418829 1.039804
v 0.000000 1.580942 2.294283
v 1.254479 2.418829 2.294283
v -1.254479 2.418829 2.294283
v -1.238445 1.114367 1.199000
v 1.207538 1.114119 1.229954
v -1.238493 2.748124 1.215899
v 1.207491 2.747875 1.246853
v -1.207538 2.773424 -1.229954
v 1.238445 2.773176 -1.199000
v -1.207491 1.139668 -1.246853
v 1.238493 1.139420 -1.215899
v -1.651071 3.046725 -0.009487
v 1.671934 1.960682 -1.630057
v 0.020927 0.858064 -1.662358
v -1.630145 1.961017 -1.671845
v 1.651071 0.840819 0.009487
v -1.651007 0.841154 -0.032301
v -0.020862 0.823908 1.639544
v 1.630145 1.926526 1.671845
v -0.020927 3.029479 1.662358
v -1.671934 1.926862 1.630057
v 1.651007 3.046389 0.032301
v 0.020862 3.063635 -1.639544
v -0.027859 1.921001 2.201268
v -0.000043 3.414152 0.015210
v 0.027859 1.966542 -2.201268
v 0.000043 0.473391 -0.015210
v 2.201385 1.943548 0.027859
v -2.201385 1.943995 -0.027859
v 2.906896 0.184884 0.126804
v 2.744571 0.027265 0.105461
v 1.328810 1.809146 0.133737
v 1.166486 1.651527 0.112394
v 1.313985 1.793776 0.359994
v 1.151660 1.636157 0.338651
v 2.892071 0.169515 0.353062
v 2.729746 0.011896 0.331719
v 2.952364 0.205939 1.535341
v 2.817137 0.054798 1.432781
v 1.394105 1.817670 1.214746
v 1.258878 1.666528 1.112186
v 1.299718 1.766244 1.414983
v 1.164491 1.615102 1.312423
v 2.857976 0.154513 1.735578
v 2.722750 0.003372 1.633018
v 2.674407 0.179259 -1.380504
v 2.527191 0.019997 -1.312597
v 1.109211 1.777145 -1.026171
v 0.961996 1.617882 -0.958263
v 1.182044 1.801045 -0.812225
v 1.034828 1.641782 -0.744318
v 2.747240 0.203159 -1.166558
v 2.600024 0.043897 -1.098651
vt 0.750972 0.816106
vt 0.790233 0.816106
vt 0.750972 0.855367
vt 0.790233 0.855367
vt 0.750972 0.894629
vt 0.790233 0.894629
vt 0.750972 0.933890
vt 0.790233 0.933890
vt 0.750972 0.973152
vt 0.790233 0.973152
vt 0.829495 0.816106
vt 0.829495 0.855367
vt 0.711710 0.816106
vt 0.711710 0.855367
vt 0.904735 0.817793
vt 0.943153 0.817793
vt 0.943153 0.856211
vt 0.904735 0.856211
vt 0.943153 0.894629
vt 0.904735 0.894629
vt 0.943153 0.933047
vt 0.904735 0.933047
vt 0.943153 0.971464
vt 0.904735 0.971464
vt 0.981571 0.817793
vt 0.981571 0.856211
vt 0.866318 0.817793
vt 0.866318 0.856211
vt 0.910157 0.632020
vt 0.946751 0.632020
vt 0.946751 0.668613
vt 0.910157 0.668613
vt 0.946751 0.705207
vt 0.910157 0.705207
vt 0.946751 0.741801
vt 0.910157 0.741801
vt 0.946751 0.778394
vt 0.910157 0.778394
vt 0.983345 0.632020
vt 0.983345 0.668613
vt 0.873564 0.632020
vt 0.873564 0.668613
vt 0.599395 0.816401
vt 0.639637 0.816401
vt 0.639637 0.856642
vt 0.599395 0.856642
vt 0.639637 0.896884
vt 0.599395 0.896884
vt 0.639637 0.937126
vt 0.599395 0.937126
vt 0.639637 0.977367
vt 0.599395 0.977367
vt 0.679879 0.816401
vt 0.679879 0.856642
vt 0.559154 0.816401
vt 0.559154 0.856642
vt 0.751411 0.632951
vt 0.789794 0.632951
vt 0.789794 0.671334
vt 0.751411 0.671334
vt 0.789794 0.709717
vt 0.751411 0.709717
vt 0.789794 0.748100
vt 0.751411 0.748100
vt 0.789794 0.786483
vt 0.751411 0.786483
vt 0.828177 0.632951
vt 0.828177 0.671334
vt 0.713028 0.632951
vt 0.713028 0.671334
vt 0.553412 0.093830
vt 0.585079 0.044549
vt 0.643154 0.094785
vt 0.589067 0.136835
vt 0.858455 0.048685
vt 0.884200 0.098283
vt 0.846547 0.135997
vt 0.798870 0.091295
vt 0.811169 0.175779
vt 0.760071 0.154034
vt 0.677587 0.164023
vt 0.622149 0.181779
vt 0.684458 0.238055
vt 0.610724 0.238218
vt 0.817056 0.230395
vt 0.747030 0.223753
vt 0.801161 0.283136
vt 0.747132 0.294138
vt 0.677548 0.311512
vt 0.622216 0.294805
vt 0.642645 0.376453
vt 0.581279 0.335608
vt 0.836458 0.325496
vt 0.774572 0.358896
vt 0.852501 0.378251
vt 0.813640 0.417371
vt 0.596213 0.433712
vt 0.559433 0.389122
vt 0.531170 0.468406
vt 0.502740 0.400391
vt 0.905361 0.393944
vt 0.872371 0.456049
vt 0.947959 0.428958
vt 0.937301 0.483059
vt 0.460786 0.490321
vt 0.454892 0.432821
vt 0.936121 0.126513
vt 0.892126 0.178857
vt 0.969095 0.174344
vt 0.941072 0.224907
vt 0.892301 0.255946
vt 0.842539 0.225930
vt 0.457446 0.165014
vt 0.496488 0.118276
vt 0.537349 0.177166
vt 0.481807 0.220500
vt 0.584557 0.231094
vt 0.529714 0.257614
vt 0.195765 0.325294
vt 0.265049 0.308704
vt 0.268258 0.399506
vt 0.177555 0.394171
vt 0.335332 0.320363
vt 0.358357 0.387782
vt 0.264057 0.433213
vt 0.357698 0.455579
vt 0.330790 0.522201
vt 0.261425 0.517206
vt 0.169199 0.449672
vt 0.191883 0.517848
vt 0.258961 0.595812
vt 0.170531 0.593781
vt 0.347346 0.599322
vt 0.327206 0.675453
vt 0.256538 0.673160
vt 0.185864 0.671024
vt 0.254119 0.750330
vt 0.165394 0.747370
vt 0.342856 0.752931
vt 0.322048 0.829213
vt 0.251690 0.827849
vt 0.181385 0.824805
vt 0.249203 0.907212
vt 0.160415 0.898682
vt 0.338351 0.904258
vt 0.319965 0.977541
vt 0.246486 0.993907
vt 0.174176 0.972973
vt 0.383799 0.268147
vt 0.436805 0.341942
vt 0.448757 0.238890
vt 0.505295 0.282238
vt 0.433394 0.507728
vt 0.497516 0.572451
vt 0.437879 0.611655
vt 0.375174 0.577722
vt 0.076872 0.252030
vt 0.143734 0.276630
vt 0.096068 0.353982
vt 0.023535 0.299260
vt 0.090387 0.496979
vt 0.144109 0.570481
vt 0.022337 0.557560
vt 0.079403 0.600421
vt 0.603905 0.631489
vt 0.644147 0.631489
vt 0.644147 0.671730
vt 0.603905 0.671730
vt 0.644147 0.711972
vt 0.603905 0.711972
vt 0.644147 0.752214
vt 0.603905 0.752214
vt 0.644147 0.792455
vt 0.603905 0.792455
vt 0.684389 0.631489
vt 0.684389 0.671730
vt 0.563664 0.631489
vt 0.563664 0.671730
vt 0.440201 0.820048
vt 0.478618 0.820048
vt 0.478618 0.858466
vt 0.440201 0.858466
vt 0.478618 0.896884
vt 0.440201 0.896884
vt 0.478618 0.935302
vt 0.440201 0.935302
vt 0.478618 0.973719
vt 0.440201 0.973719
vt 0.517036 0.820048
vt 0.517036 0.858466
vt 0.401783 0.820048
vt 0.401783 0.858466
vt 0.443540 0.630454
vt 0.484299 0.630454
vt 0.484299 0.671213
vt 0.443540 0.671213
vt 0.484299 0.711972
vt 0.443540 0.711972
vt 0.484299 0.752731
vt 0.443540 0.752731
vt 0.484299 0.793490
vt 0.443540 0.793490
vt 0.525058 0.630454
vt 0.525058 0.671213
vt 0.402781 0.630454
vt 0.402781 0.671213
vn -0.053323 0.067629 0.996285
vn -0.053323 0.067629 0.996285
vn -0.053323 0.067629 0.996285
vn -0.053323 0.067629 0.996285
vn 0.696748 0.717225 -0.011395
vn 0.696748 0.717225 -0.011395
vn 0.696748 0.717225 -0.011395
vn 0.696748 0.717225 -0.011395
vn 0.053323 -0.067629 -0.996285
vn 0.053323 -0.067629 -0.996285
vn 0.053323 -0.067629 -0.996285
vn 0.053323 -0.067629 -0.996285
vn -0.696748 -0.717225 0.011395
vn -0.696748 -0.717225 0.011395
vn -0.696748 -0.717225 0.011395
vn -0.696748 -0.717225 0.011395
vn 0.715331 -0.693552 0.085365
vn 0.715331 -0.693552 0.085365
vn 0.715331 -0.693552 0.085365
vn 0.715331 -0.693552 0.085365
vn -0.715331 0.693552 -0.085365
vn -0.715331 0.693552 -0.085365
vn -0.715331 0.693552 -0.085365
vn -0.715331 0.693552 -0.085365
vn -0.860937 -0.382836 -0.334999
vn -0.860937 -0.382836 -0.334999
vn -0.860937 -0.382836 -0.334999
vn -0.860937 -0.382836 -0.334999
vn -0.504060 0.730830 0.460231
vn -0.504060 0.730829 0.460231
vn -0.504060 0.730830 0.460231
vn -0.504060 0.730829 0.460231
vn 0.860937 0.382835 0.334999
vn 0.860937 0.382835 0.334999
vn 0.860937 0.382835 0.334999
vn 0.860937 0.382835 0.334999
vn 0.504059 -0.730829 -0.460231
vn 0.504059 -0.730830 -0.460231
vn 0.504059 -0.730829 -0.460231
vn 0.504059 -0.730830 -0.460231
vn -0.068634 -0.565089 0.822170
vn -0.068634 -0.565089 0.822170
vn -0.068634 -0.565089 0.822170
vn -0.068634 -0.565089 0.822170
vn 0.068634 0.565089 -0.822170
vn 0.068634 0.565089 -0.822170
vn 0.068634 0.565089 -0.822170
vn 0.068634 0.565089 -0.822170
vn 0.046588 0.226284 0.972947
vn 0.046588 0.226284 0.972947
vn 0.046588 0.226284 0.972947
vn 0.046588 0.226284 0.972947
vn 0.674071 0.711691 -0.197799
vn 0.674071 0.711691 -0.197799
vn 0.674071 0.711691 -0.197799
vn 0.674071 0.711691 -0.197799
vn -0.046588 -0.226284 -0.972947
vn -0.046588 -0.226284 -0.972947
vn -0.046588 -0.226284 -0.972947
vn -0.046588 -0.226284 -0.972947
vn -0.674071 -0.711691 0.197799
vn -0.674071 -0.711691 0.197799
vn -0.674071 -0.711691 0.197799
vn -0.674071 -0.711691 0.197799
vn 0.737197 -0.665049 0.119376
vn 0.737197 -0.665049 0.119376
vn 0.737197 -0.665049 0.119376
vn 0.737197 -0.665049 0.119376
vn -0.737197 0.665049 -0.119376
vn -0.737197 0.665049 -0.119376
vn -0.737197 0.665049 -0.119376
vn -0.737197 0.665049 -0.119376
vn -0.197261 -0.105164 0.974694
vn -0.197261 -0.105164 0.974694
vn -0.197261 -0.105164 0.974694
vn -0.197261 -0.105164 0.974694
vn 0.675889 0.705578 0.212915
vn 0.675889 0.705578 0.212915
vn 0.675889 0.705578 0.212915
vn 0.675889 0.705578 0.212915
vn 0.197261 0.105164 -0.974694
vn 0.197261 0.105164 -0.974694
vn 0.197261 0.105164 -0.974694
vn 0.197261 0.105164 -0.974694
vn -0.675890 -0.705578 -0.212916
vn -0.675890 -0.705578 -0.212916
vn -0.675890 -0.705578 -0.212916
vn -0.675890 -0.705578 -0.212916
vn 0.710114 -0.700785 0.068104
vn 0.710114 -0.700785 0.068104
vn 0.710114 -0.700785 0.068104
vn 0.710114 -0.700785 0.068104
vn -0.710114 0.700785 -0.068104
vn -0.710114 0.700785 -0.068104
vn -0.710114 0.700785 -0.068104
vn -0.710114 0.700785 -0.068104
vn -0.321552 -0.382835 0.866049
vn -0.321552 -0.382835 0.866049
vn -0.321552 -0.382835 0.866049
vn -0.321552 -0.382835 0.866049
vn 0.468024 0.730829 0.496832
vn 0.468024 0.730829 0.496832
vn 0.468024 0.730829 0.496832
vn 0.468024 0.730829 0.496832
vn 0.321552 0.382836 -0.866049
vn 0.321552 0.382836 -0.866049
vn 0.321552 0.382836 -0.866049
vn 0.321552 0.382836 -0.866049
vn -0.468024 -0.730829 -0.496832
vn -0.468024 -0.730829 -0.496832
vn -0.468024 -0.730829 -0.496832
vn -0.468024 -0.730829 -0.496832
vn 0.823139 -0.565089 0.055823
vn 0.823139 -0.565089 0.055823
vn 0.823139 -0.565089 0.055823
vn 0.823139 -0.565089 0.055823
vn -0.823139 0.565089 -0.055823
vn -0.823139 0.565089 -0.055823
vn -0.823139 0.565089 -0.055823
vn -0.823139 0.565089 -0.055823
vn -0.479688 -0.734710 0.479688
vn -0.000000 -0.813586 0.581445
vn -0.000000 0.000000 1.000000
vn -0.707107 0.000000 0.707107
vn 0.479688 -0.734710 0.479688
vn 0.707107 0.000000 0.707107
vn 0.479688 0.734710 0.479688
vn 0.000000 0.813586 0.581444
vn -0.479688 0.734710 0.479688
vn -0.000000 1.000000 0.000000
vn -0.581445 0.813586 -0.000000
vn 0.581445 0.813586 0.000000
vn 0.479688 0.734710 -0.479688
vn 0.000000 0.813586 -0.581444
vn -0.479688 0.734710 -0.479688
vn -0.000000 -0.000000 -1.000000
vn -0.707107 -0.000000 -0.707107
vn 0.707107 -0.000000 -0.707107
vn 0.479688 -0.734710 -0.479688
vn -0.000000 -0.813586 -0.581445
vn -0.479688 -0.734710 -0.479688
vn 0.000000 -1.000000 0.000000
vn -0.581445 -0.813586 0.000000
vn 0.581445 -0.813586 -0.000000
vn 1.000000 0.000000 0.000000
vn -1.000000 0.000000 -0.000000
vn -0.485698 -0.739584 0.465954
vn -0.007334 -0.819556 0.572952
vn -0.012654 -0.010343 0.999867
vn -0.715998 -0.007242 0.698065
vn 0.473601 -0.739681 0.478094
vn 0.698102 -0.007385 0.715960
vn 0.473558 0.729661 0.493293
vn -0.007382 0.807529 0.589782
vn -0.485741 0.729758 0.481153
vn -0.000029 0.999947 0.010343
vn -0.581422 0.813602 0.001058
vn 0.581374 0.813483 0.015773
vn 0.485698 0.739584 -0.465954
vn 0.007334 0.819556 -0.572952
vn -0.473601 0.739681 -0.478094
vn 0.012654 0.010343 -0.999866
vn -0.698102 0.007385 -0.715960
vn 0.715998 0.007242 -0.698065
vn 0.485741 -0.729758 -0.481153
vn 0.007382 -0.807529 -0.589782
vn -0.473558 -0.729661 -0.493293
vn 0.000029 -0.999947 -0.010343
vn -0.581374 -0.813484 -0.015773
vn 0.581422 -0.813602 -0.001058
vn 0.999920 -0.000102 0.012654
vn -0.999920 0.000102 -0.012654
vn 0.065234 0.067629 -0.995576
vn 0.065234 0.067629 -0.995576
vn 0.065234 0.067629 -0.995576
vn 0.065234 0.067629 -0.995576
vn -0.696835 0.717225 0.003062
vn -0.696835 0.717225 0.003062
vn -0.696835 0.717225 0.003062
vn -0.696835 0.717225 0.003062
vn -0.065234 -0.067629 0.995576
vn -0.065234 -0.067629 0.995576
vn -0.065234 -0.067629 0.995576
vn -0.065234 -0.067629 0.995576
vn 0.696834 -0.717226 -0.003062
vn 0.696834 -0.717226 -0.003062
vn 0.696834 -0.717226 -0.003062
vn 0.696834 -0.717226 -0.003062
vn -0.714259 -0.693552 -0.093913
vn -0.714259 -0.693552 -0.093913
vn -0.714259 -0.693552 -0.093913
vn -0.714259 -0.693552 -0.093913
vn 0.714259 0.693552 0.093913
vn 0.714259 0.693552 0.093913
vn 0.714259 0.693552 0.093913
vn 0.714259 0.693552 0.093913
vn 0.415323 0.226284 -0.881080
vn 0.415323 0.226284 -0.881080
vn 0.415323 0.226284 -0.881080
vn 0.415323 0.226284 -0.881080
vn -0.688080 0.711691 -0.141565
vn -0.688080 0.711691 -0.141565
vn -0.688080 0.711691 -0.141565
vn -0.688080 0.711691 -0.141565
vn -0.415323 -0.226284 0.881080
vn -0.415323 -0.226284 0.881080
vn -0.415323 -0.226284 0.881081
vn -0.415323 -0.226284 0.881080
vn 0.688081 -0.711691 0.141565
vn 0.688081 -0.711691 0.141565
vn 0.688081 -0.711691 0.141565
vn 0.688081 -0.711691 0.141565
vn -0.595024 -0.665049 -0.451283
vn -0.595024 -0.665049 -0.451283
vn -0.595024 -0.665049 -0.451283
vn -0.595024 -0.665049 -0.451283
vn 0.595024 0.665049 0.451283
vn 0.595024 0.665049 0.451283
vn 0.595024 0.665049 0.451283
vn 0.595024 0.665049 0.451283
vn -0.320477 -0.105164 -0.941401
vn -0.320477 -0.105164 -0.941401
vn -0.320477 -0.105164 -0.941401
vn -0.320477 -0.105164 -0.941401
vn -0.691143 0.705578 0.156464
vn -0.691143 0.705578 0.156464
vn -0.691143 0.705578 0.156464
vn -0.691143 0.705578 0.156464
vn 0.320477 0.105164 0.941400
vn 0.320477 0.105164 0.941400
vn 0.320477 0.105164 0.941400
vn 0.320477 0.105164 0.941400
vn 0.691143 -0.705578 -0.156463
vn 0.691143 -0.705578 -0.156463
vn 0.691143 -0.705578 -0.156463
vn 0.691143 -0.705578 -0.156463
vn -0.647778 -0.700785 0.298805
vn -0.647778 -0.700785 0.298805
vn -0.647778 -0.700785 0.298805
vn -0.647778 -0.700785 0.298805
vn 0.647777 0.700785 -0.298805
vn 0.647777 0.700785 -0.298805
vn 0.647777 0.700785 -0.298805
vn 0.647777 0.700785 -0.298805
s off
g pCube19
usemtl initialShadingGroup
f 1/1/1 2/2/2 4/4/3 3/3/4
f 3/3/5 4/4/6 6/6/7 5/5/8
f 5/5/9 6/6/10 8/8/11 7/7/12
f 7/7/13 8/8/14 2/10/15 1/9/16
f 2/2/17 8/11/18 6/12/19 4/4/20
f 7/13/21 1/1/22 3/3/23 5/14/24
f 9/15/25 10/16/26 12/17/27 11/18/28
f 11/18/29 12/17/30 14/19/31 13/20/32
f 13/20/33 14/19/34 16/21/35 15/22/36
f 15/22/37 16/21/38 10/23/39 9/24/40
f 10/16/41 16/25/42 14/26/43 12/17/44
f 15/27/45 9/15/46 11/18/47 13/28/48
f 17/29/49 18/30/50 20/31/51 19/32/52
f 19/32/53 20/31/54 22/33/55 21/34/56
f 21/34/57 22/33/58 24/35/59 23/36/60
f 23/36/61 24/35/62 18/37/63 17/38/64
f 18/30/65 24/39/66 22/40/67 20/31/68
f 23/41/69 17/29/70 19/32/71 21/42/72
f 25/43/73 26/44/74 28/45/75 27/46/76
f 27/46/77 28/45/78 30/47/79 29/48/80
f 29/48/81 30/47/82 32/49/83 31/50/84
f 31/50/85 32/49/86 26/51/87 25/52/88
f 26/44/89 32/53/90 30/54/91 28/45/92
f 31/55/93 25/43/94 27/46/95 29/56/96
f 33/57/97 34/58/98 36/59/99 35/60/100
f 35/60/101 36/59/102 38/61/103 37/62/104
f 37/62/105 38/61/106 40/63/107 39/64/108
f 39/64/109 40/63/110 34/65/111 33/66/112
f 34/58/113 40/67/114 38/68/115 36/59/116
f 39/69/117 33/57/118 35/60/119 37/70/120
s 1
f 41/71/121 55/72/122 61/73/123 58/74/124
f 55/75/122 42/76/125 56/77/126 61/78/123
f 61/78/123 56/77/126 44/79/127 57/80/128
f 58/74/124 61/73/123 57/81/128 43/82/129
f 43/82/129 57/81/128 62/83/130 49/84/131
f 57/80/128 44/79/127 59/85/132 62/86/130
f 62/86/130 59/85/132 46/87/133 60/88/134
f 49/84/131 62/83/130 60/89/134 45/90/135
f 45/90/135 60/89/134 63/91/136 52/92/137
f 60/88/134 46/87/133 50/93/138 63/94/136
f 63/94/136 50/93/138 48/95/139 51/96/140
f 52/92/137 63/91/136 51/97/140 47/98/141
f 47/98/141 51/97/140 64/99/142 54/100/143
f 51/96/140 48/95/139 53/101/144 64/102/142
f 64/102/142 53/101/144 42/103/125 55/104/122
f 54/100/143 64/99/142 55/105/122 41/106/121
f 42/76/125 53/107/144 65/108/145 56/77/126
f 53/107/144 48/109/139 50/110/138 65/108/145
f 65/108/145 50/110/138 46/111/133 59/112/132
f 56/77/126 65/108/145 59/112/132 44/79/127
f 47/113/141 54/114/143 66/115/146 52/116/137
f 54/114/143 41/71/121 58/74/124 66/115/146
f 66/115/146 58/74/124 43/82/129 49/117/131
f 52/116/137 66/115/146 49/117/131 45/118/135
s 2
f 67/119/147 81/120/148 87/121/149 84/122/150
f 81/120/148 68/123/151 82/124/152 87/121/149
f 87/125/149 82/126/152 70/127/153 83/128/154
f 84/129/150 87/125/149 83/128/154 69/130/155
f 69/130/155 83/128/154 88/131/156 75/132/157
f 83/128/154 70/127/153 85/133/158 88/131/156
f 88/131/156 85/133/158 72/134/159 86/135/160
f 75/132/157 88/131/156 86/135/160 71/136/161
f 71/136/161 86/135/160 89/137/162 78/138/163
f 86/135/160 72/134/159 76/139/164 89/137/162
f 89/137/162 76/139/164 74/140/165 77/141/166
f 78/138/163 89/137/162 77/141/166 73/142/167
f 73/142/167 77/141/166 90/143/168 80/144/169
f 77/141/166 74/140/165 79/145/170 90/143/168
f 90/143/168 79/145/170 68/146/151 81/147/148
f 80/144/169 90/143/168 81/147/148 67/148/147
f 68/123/151 79/149/170 91/150/171 82/124/152
f 79/149/170 74/151/165 76/152/164 91/150/171
f 91/153/171 76/154/164 72/155/159 85/156/158
f 82/126/152 91/153/171 85/156/158 70/127/153
f 73/157/167 80/158/169 92/159/172 78/160/163
f 80/158/169 67/119/147 84/122/150 92/159/172
f 92/161/172 84/129/150 69/130/155 75/162/157
f 78/163/163 92/161/172 75/162/157 71/164/161
s off
f 93/165/173 94/166/174 96/167/175 95/168/176
f 95/168/177 96/167/178 98/169/179 97/170/180
f 97/170/181 98/169/182 100/171/183 99/172/184
f 99/172/185 100/171/186 94/173/187 93/174/188
f 94/166/189 100/175/190 98/176/191 96/167/192
f 99/177/193 93/165/194 95/168/195 97/178/196
f 101/179/197 102/180/198 104/181/199 103/182/200
f 103/182/201 104/181/202 106/183/203 105/184/204
f 105/184/205 106/183/206 108/185/207 107/186/208
f 107/186/209 108/185/210 102/187/211 101/188/212
f 102/180/213 108/189/214 106/190/215 104/181/216
f 107/191/217 101/179/218 103/182/219 105/192/220
f 109/193/221 110/194/222 112/195/223 111/196/224
f 111/196/225 112/195/226 114/197/227 113/198/228
f 113/198/229 114/197/230 116/199/231 115/200/232
f 115/200/233 116/199/234 110/201/235 109/202/236
f 110/194/237 116/203/238 114/204/239 112/195/240
f 115/205/241 109/193/242 111/196/243 113/206/244
