# This file uses centimeters as units for non-parametric coordinates.

mtllib spider.mtl
g default
v -1.238445 1.114368 1.199000
v 1.207539 1.114119 1.229954
v -1.238493 2.748124 1.215899
v 1.207491 2.747875 1.246853
v -1.207539 2.773424 -1.229954
v 1.238445 2.773176 -1.199000
v -1.207491 1.139668 -1.246853
v 1.238493 1.139420 -1.215899
v -1.651071 3.046725 -0.009487
v 1.671934 1.960682 -1.630057
v 0.020927 0.858064 -1.662358
v -1.630145 1.961017 -1.671845
v 1.651071 0.840819 0.009487
v -1.651007 0.841154 -0.032301
v -0.020862 0.823908 1.639544
v 1.630145 1.926526 1.671845
v -0.020927 3.029479 1.662358
v -1.671934 1.926862 1.630057
v 1.651007 3.046389 0.032301
v 0.020862 3.063635 -1.639544
v -0.027859 1.921001 2.201268
v -0.000043 3.414152 0.015210
v 0.027859 1.966542 -2.201268
v 0.000043 0.473391 -0.015210
v 2.201385 1.943548 0.027859
v -2.201385 1.943995 -0.027859
vt 0.195765 0.325294
vt 0.174176 0.972973
vt 0.335332 0.320363
vt 0.319965 0.977541
vt 0.191883 0.517848
vt 0.330790 0.522201
vt 0.185864 0.671024
vt 0.079403 0.600421
vt 0.327206 0.675453
vt 0.437879 0.611655
vt 0.181385 0.824805
vt 0.076872 0.252030
vt 0.322048 0.829213
vt 0.448757 0.238890
vt 0.264057 0.433213
vt 0.258961 0.595812
vt 0.254119 0.750330
vt 0.249203 0.907212
vt 0.433394 0.507728
vt 0.090387 0.496979
vt 0.265049 0.308704
vt 0.246486 0.993907
vt 0.358357 0.387782
vt 0.261425 0.517206
vt 0.169199 0.449672
vt 0.347346 0.599322
vt 0.375174 0.577722
vt 0.256538 0.673160
vt 0.170531 0.593781
vt 0.144109 0.570481
vt 0.342856 0.752931
vt 0.497516 0.572451
vt 0.251690 0.827849
vt 0.165394 0.747370
vt 0.023535 0.299260
vt 0.338351 0.904258
vt 0.383799 0.268147
vt 0.160415 0.898682
vt 0.143734 0.276630
vt 0.022337 0.557560
vt 0.177555 0.394171
vt 0.096068 0.353982
vt 0.505295 0.282238
vt 0.436805 0.341942
vt 0.357698 0.455579
vt 0.268258 0.399506
vn -0.491636 -0.731899 0.471824
vn -0.007004 -0.837270 0.546744
vn -0.012654 -0.010343 0.999866
vn -0.715998 -0.007242 0.698065
vn 0.479390 -0.731998 0.484112
vn 0.698102 -0.007385 0.715960
vn 0.479347 0.721855 0.499151
vn -0.007053 0.825781 0.563946
vn -0.491679 0.721954 0.486862
vn -0.000029 0.999947 0.010343
vn -0.555399 0.831582 0.001573
vn 0.555351 0.831470 0.015630
vn 0.491636 0.731899 -0.471824
vn 0.007004 0.837271 -0.546744
vn -0.479390 0.731998 -0.484112
vn 0.012654 0.010343 -0.999866
vn -0.698102 0.007385 -0.715960
vn 0.715998 0.007242 -0.698065
vn 0.491679 -0.721954 -0.486862
vn 0.007053 -0.825781 -0.563946
vn -0.479347 -0.721855 -0.499151
vn 0.000029 -0.999947 -0.010343
vn -0.555351 -0.831469 -0.015630
vn 0.555399 -0.831582 -0.001573
vn 0.999920 -0.000102 0.012654
vn -0.999920 0.000102 -0.012654
s 1
g pCube1
usemtl initialShadingGroup
f 1/1/1 15/21/2 21/46/3 18/41/4
f 15/21/2 2/3/5 16/23/6 21/46/3
f 21/15/3 16/45/6 4/6/7 17/24/8
f 18/25/4 21/15/3 17/24/8 3/5/9
f 3/5/9 17/24/8 22/16/10 9/29/11
f 17/24/8 4/6/7 19/26/12 22/16/10
f 22/16/10 19/26/12 6/9/13 20/28/14
f 9/29/11 22/16/10 20/28/14 5/7/15
f 5/7/15 20/28/14 23/17/16 12/34/17
f 20/28/14 6/9/13 10/31/18 23/17/16
f 23/17/16 10/31/18 8/13/19 11/33/20
f 12/34/17 23/17/16 11/33/20 7/11/21
f 7/11/21 11/33/20 24/18/22 14/38/23
f 11/33/20 8/13/19 13/36/24 24/18/22
f 24/18/22 13/36/24 2/4/5 15/22/2
f 14/38/23 24/18/22 15/22/2 1/2/1
f 2/3/5 13/37/24 25/44/25 16/23/6
f 13/37/24 8/14/19 10/43/18 25/44/25
f 25/19/25 10/32/18 6/10/13 19/27/12
f 16/45/6 25/19/25 19/27/12 4/6/7
f 7/12/21 14/39/23 26/42/26 12/35/17
f 14/39/23 1/1/1 18/41/4 26/42/26
f 26/20/26 18/25/4 3/5/9 9/30/11
f 12/40/17 26/20/26 9/30/11 5/8/15
g default
v -0.696933 1.953336 2.991216
v 0.696933 1.953336 2.991216
v -0.696933 2.884322 2.991216
v 0.696933 2.884322 2.991216
v -0.696933 2.884322 1.597350
v 0.696933 2.884322 1.597350
v -0.696933 1.953336 1.597350
v 0.696933 1.953336 1.597350
v -0.940859 3.047244 2.294283
v 0.940859 2.418829 1.353424
v 0.000000 1.790414 1.353424
v -0.940859 2.418829 1.353424
v 0.940859 1.790414 2.294283
v -0.940859 1.790414 2.294283
v 0.000000 1.790414 3.235142
v 0.940859 2.418829 3.235142
v 0.000000 3.047244 3.235142
v -0.940859 2.418829 3.235142
v 0.940859 3.047244 2.294283
v 0.000000 3.047244 1.353424
v 0.000000 2.418829 3.548762
v 0.000000 3.256716 2.294283
v 0.000000 2.418829 1.039804
v 0.000000 1.580942 2.294283
v 1.254479 2.418829 2.294283
v -1.254479 2.418829 2.294283
vt 0.553412 0.093830
vt 0.454892 0.432821
vt 0.884200 0.098283
vt 0.947959 0.428958
vt 0.622149 0.181779
vt 0.811169 0.175779
vt 0.622216 0.294805
vt 0.529714 0.257614
vt 0.801161 0.283136
vt 0.892301 0.255946
vt 0.559433 0.389122
vt 0.457446 0.165014
vt 0.852501 0.378251
vt 0.969095 0.174344
vt 0.798870 0.091295
vt 0.747030 0.223753
vt 0.774572 0.358896
vt 0.872371 0.456049
vt 0.892126 0.178857
vt 0.537349 0.177166
vt 0.585079 0.044549
vt 0.460786 0.490321
vt 0.846547 0.135997
vt 0.760071 0.154034
vt 0.589067 0.136835
vt 0.817056 0.230395
vt 0.842539 0.225930
vt 0.747132 0.294138
vt 0.610724 0.238218
vt 0.584557 0.231094
vt 0.836458 0.325496
vt 0.941072 0.224907
vt 0.813640 0.417371
vt 0.581279 0.335608
vt 0.481807 0.220500
vt 0.905361 0.393944
vt 0.936121 0.126513
vt 0.502740 0.400391
vt 0.496488 0.118276
vt 0.858455 0.048685
vt 0.937301 0.483059
vt 0.531170 0.468406
vt 0.596213 0.433712
vt 0.642645 0.376453
vt 0.677548 0.311512
vt 0.684458 0.238055
vt 0.677587 0.164023
vt 0.643154 0.094785
vn -0.485552 -0.726965 0.485552
vn -0.000000 -0.831570 0.555420
vn -0.000000 0.000000 1.000000
vn -0.707107 0.000000 0.707107
vn 0.485552 -0.726965 0.485552
vn 0.707107 0.000000 0.707107
vn 0.485552 0.726965 0.485552
vn -0.000000 0.831570 0.555419
vn -0.485552 0.726965 0.485552
vn 0.000000 1.000000 -0.000000
vn -0.555419 0.831570 0.000000
vn 0.555419 0.831570 -0.000000
vn 0.485552 0.726965 -0.485552
vn -0.000000 0.831570 -0.555419
vn -0.485552 0.726965 -0.485552
vn -0.000000 0.000000 -1.000000
vn -0.707107 -0.000000 -0.707107
vn 0.707107 0.000000 -0.707107
vn 0.485552 -0.726965 -0.485552
vn -0.000000 -0.831570 -0.555419
vn -0.485552 -0.726965 -0.485552
vn 0.000000 -1.000000 0.000000
vn -0.555420 -0.831570 -0.000000
vn 0.555419 -0.831570 0.000000
vn 1.000000 0.000000 0.000000
vn -1.000000 0.000000 0.000000
s 1
g pCube2
usemtl initialShadingGroup
f 27/47/27 41/67/28 47/94/29 44/71/30
f 41/86/28 28/49/31 42/69/32 47/61/29
f 47/61/29 42/69/32 30/52/33 43/70/34
f 44/71/30 47/94/29 43/93/34 29/51/35
f 29/51/35 43/93/34 48/92/36 35/75/37
f 43/70/34 30/52/33 45/72/38 48/62/36
f 48/62/36 45/72/38 32/55/39 46/74/40
f 35/75/37 48/92/36 46/91/40 31/53/41
f 31/53/41 46/91/40 49/90/42 38/80/43
f 46/74/40 32/55/39 36/77/44 49/63/42
f 49/63/42 36/77/44 34/59/45 37/79/46
f 38/80/43 49/90/42 37/89/46 33/57/47
f 33/57/47 37/89/46 50/88/48 40/84/49
f 37/79/46 34/59/45 39/82/50 50/64/48
f 50/64/48 39/82/50 28/50/31 41/87/28
f 40/84/49 50/88/48 41/68/28 27/48/27
f 28/49/31 39/83/50 51/65/51 42/69/32
f 39/83/50 34/60/45 36/78/44 51/65/51
f 51/65/51 36/78/44 32/56/39 45/73/38
f 42/69/32 51/65/51 45/73/38 30/52/33
f 33/58/47 40/85/49 52/66/52 38/81/43
f 40/85/49 27/47/27 44/71/30 52/66/52
f 52/66/52 44/71/30 29/51/35 35/76/37
f 38/81/43 52/66/52 35/76/37 31/54/41
g default
v -1.934455 0.103695 -2.394593
v -1.747386 -0.024729 -2.381906
v -0.874546 1.758766 -1.269443
v -0.687477 1.630342 -1.256757
v -0.801469 1.845770 -1.466264
v -0.614400 1.717346 -1.453578
v -1.861378 0.190700 -2.591414
v -1.674309 0.062276 -2.578727
vt 0.751411 0.632951
vt 0.789794 0.632951
vt 0.751411 0.671334
vt 0.789794 0.671334
vt 0.751411 0.709717
vt 0.789794 0.709717
vt 0.751411 0.748100
vt 0.789794 0.748100
vt 0.751411 0.786483
vt 0.789794 0.786483
vt 0.828177 0.632951
vt 0.828177 0.671334
vt 0.713028 0.632951
vt 0.713028 0.671334
vn -0.321552 -0.382835 0.866049
vn -0.321552 -0.382835 0.866049
vn -0.321552 -0.382835 0.866049
vn -0.321552 -0.382835 0.866049
vn 0.468024 0.730829 0.496832
vn 0.468024 0.730829 0.496832
vn 0.468024 0.730829 0.496832
vn 0.468024 0.730829 0.496832
vn 0.321552 0.382835 -0.866049
vn 0.321552 0.382835 -0.866049
vn 0.321552 0.382835 -0.866049
vn 0.321552 0.382835 -0.866049
vn -0.468024 -0.730829 -0.496832
vn -0.468024 -0.730829 -0.496832
vn -0.468024 -0.730829 -0.496832
vn -0.468024 -0.730829 -0.496832
vn 0.823139 -0.565089 0.055824
vn 0.823139 -0.565089 0.055824
vn 0.823139 -0.565089 0.055824
vn 0.823139 -0.565089 0.055824
vn -0.823139 0.565089 -0.055824
vn -0.823139 0.565089 -0.055824
vn -0.823139 0.565089 -0.055824
vn -0.823139 0.565089 -0.055824
s off
g pCube7
usemtl initialShadingGroup
f 53/95/53 54/96/54 56/98/55 55/97/56
f 55/97/57 56/98/58 58/100/59 57/99/60
f 57/99/61 58/100/62 60/102/63 59/101/64
f 59/101/65 60/102/66 54/104/67 53/103/68
f 54/96/69 60/105/70 58/106/71 56/98/72
f 59/107/73 53/95/74 55/97/75 57/108/76
g default
v -2.957864 0.179259 -1.200484
v -2.796481 0.019997 -1.185006
v -1.427213 1.777145 -0.718304
v -1.265830 1.617882 -0.702826
v -1.382383 1.801045 -0.939816
v -1.221000 1.641782 -0.924338
v -2.913034 0.203159 -1.421996
v -2.751651 0.043897 -1.406518
vt 0.599395 0.816401
vt 0.639637 0.816401
vt 0.599395 0.856642
vt 0.639637 0.856642
vt 0.599395 0.896884
vt 0.639637 0.896884
vt 0.599395 0.937126
vt 0.639637 0.937126
vt 0.599395 0.977367
vt 0.639637 0.977367
vt 0.679879 0.816401
vt 0.679879 0.856642
vt 0.559154 0.816401
vt 0.559154 0.856642
vn -0.197261 -0.105164 0.974694
vn -0.197261 -0.105164 0.974694
vn -0.197261 -0.105164 0.974694
vn -0.197261 -0.105164 0.974694
vn 0.675889 0.705578 0.212916
vn 0.675889 0.705578 0.212916
vn 0.675889 0.705578 0.212916
vn 0.675889 0.705578 0.212916
vn 0.197261 0.105164 -0.974694
vn 0.197261 0.105164 -0.974694
vn 0.197261 0.105164 -0.974694
vn 0.197261 0.105164 -0.974694
vn -0.675889 -0.705578 -0.212916
vn -0.675889 -0.705578 -0.212916
vn -0.675889 -0.705578 -0.212916
vn -0.675889 -0.705578 -0.212916
vn 0.710114 -0.700785 0.068104
vn 0.710114 -0.700785 0.068104
vn 0.710114 -0.700785 0.068104
vn 0.710114 -0.700785 0.068104
vn -0.710114 0.700785 -0.068104
vn -0.710114 0.700785 -0.068104
vn -0.710114 0.700785 -0.068104
vn -0.710114 0.700785 -0.068104
s off
g pCube8
usemtl initialShadingGroup
f 61/109/77 62/110/78 64/112/79 63/111/80
f 63/111/81 64/112/82 66/114/83 65/113/84
f 65/113/85 66/114/86 68/116/87 67/115/88
f 67/115/89 68/116/90 62/118/91 61/117/92
f 62/110/93 68/119/94 66/120/95 64/112/96
f 67/121/97 61/109/98 63/111/99 65/122/100
g default
v -3.055994 0.205939 1.744847
v -2.888456 0.054798 1.771977
v -1.529462 1.817670 1.296902
v -1.361925 1.666528 1.324032
v -1.540050 1.766244 1.075788
v -1.372512 1.615102 1.102917
v -3.066581 0.154513 1.523732
v -2.899044 0.003372 1.550862
vt 0.910157 0.632020
vt 0.946751 0.632020
vt 0.910157 0.668613
vt 0.946751 0.668613
vt 0.910157 0.705207
vt 0.946751 0.705207
vt 0.910157 0.741801
vt 0.946751 0.741801
vt 0.910157 0.778394
vt 0.946751 0.778394
vt 0.983345 0.632020
vt 0.983345 0.668613
vt 0.873564 0.632020
vt 0.873564 0.668613
vn 0.046587 0.226284 0.972947
vn 0.046587 0.226284 0.972947
vn 0.046587 0.226284 0.972947
vn 0.046587 0.226284 0.972947
vn 0.674070 0.711692 -0.197799
vn 0.674070 0.711692 -0.197799
vn 0.674070 0.711692 -0.197799
vn 0.674070 0.711692 -0.197799
vn -0.046587 -0.226284 -0.972947
vn -0.046587 -0.226284 -0.972947
vn -0.046587 -0.226284 -0.972947
vn -0.046587 -0.226284 -0.972947
vn -0.674070 -0.711692 0.197799
vn -0.674070 -0.711692 0.197799
vn -0.674070 -0.711692 0.197799
vn -0.674070 -0.711692 0.197799
vn 0.737197 -0.665049 0.119376
vn 0.737197 -0.665049 0.119376
vn 0.737197 -0.665049 0.119376
vn 0.737197 -0.665049 0.119376
vn -0.737197 0.665049 -0.119376
vn -0.737197 0.665049 -0.119376
vn -0.737197 0.665049 -0.119376
vn -0.737197 0.665049 -0.119376
s off
g pCube9
usemtl initialShadingGroup
f 69/123/101 70/124/102 72/126/103 71/125/104
f 71/125/105 72/126/106 74/128/107 73/127/108
f 73/127/109 74/128/110 76/130/111 75/129/112
f 75/129/113 76/130/114 70/132/115 69/131/116
f 70/124/117 76/133/118 74/134/119 72/126/120
f 75/135/121 69/123/122 71/125/123 73/136/124
g default
v -3.237185 0.184884 0.349139
v -3.074617 0.027265 0.368539
v -1.659295 1.809146 0.323335
v -1.496727 1.651527 0.342735
v -1.647177 1.793776 0.096916
v -1.484608 1.636157 0.116316
v -3.225066 0.169515 0.122721
v -3.062498 0.011896 0.142121
vt 0.750972 0.816106
vt 0.790233 0.816106
vt 0.750972 0.855367
vt 0.790233 0.855367
vt 0.750972 0.894629
vt 0.790233 0.894629
vt 0.750972 0.933890
vt 0.790233 0.933890
vt 0.750972 0.973152
vt 0.790233 0.973152
vt 0.829495 0.816106
vt 0.829495 0.855367
vt 0.711710 0.816106
vt 0.711710 0.855367
vn -0.053323 0.067629 0.996284
vn -0.053323 0.067629 0.996284
vn -0.053323 0.067629 0.996284
vn -0.053323 0.067629 0.996284
vn 0.696748 0.717225 -0.011394
vn 0.696748 0.717225 -0.011394
vn 0.696748 0.717225 -0.011394
vn 0.696748 0.717225 -0.011394
vn 0.053323 -0.067629 -0.996284
vn 0.053323 -0.067629 -0.996284
vn 0.053323 -0.067629 -0.996284
vn 0.053323 -0.067629 -0.996284
vn -0.696748 -0.717225 0.011394
vn -0.696748 -0.717225 0.011394
vn -0.696748 -0.717225 0.011394
vn -0.696748 -0.717225 0.011394
vn 0.715331 -0.693552 0.085365
vn 0.715331 -0.693552 0.085365
vn 0.715331 -0.693552 0.085365
vn 0.715331 -0.693552 0.085365
vn -0.715331 0.693552 -0.085365
vn -0.715331 0.693552 -0.085365
vn -0.715331 0.693552 -0.085365
vn -0.715331 0.693552 -0.085365
s off
g pCube10
usemtl initialShadingGroup
f 77/137/125 78/138/126 80/140/127 79/139/128
f 79/139/129 80/140/130 82/142/131 81/141/132
f 81/141/133 82/142/134 84/144/135 83/143/136
f 83/143/137 84/144/138 78/146/139 77/145/140
f 78/138/141 84/147/142 82/148/143 80/140/144
f 83/149/145 77/137/146 79/139/147 81/150/148
g default
v 1.575006 0.103695 -2.576706
v 1.559408 -0.024729 -2.389857
v 0.433489 1.758766 -1.534446
v 0.417891 1.630342 -1.347597
v 0.629148 1.845770 -1.458313
v 0.613550 1.717346 -1.271464
v 1.770665 0.190700 -2.500573
v 1.755067 0.062276 -2.313725
vt 0.904735 0.817793
vt 0.943153 0.817793
vt 0.904735 0.856211
vt 0.943153 0.856211
vt 0.904735 0.894629
vt 0.943153 0.894629
vt 0.904735 0.933047
vt 0.943153 0.933047
vt 0.904735 0.971464
vt 0.943153 0.971464
vt 0.981571 0.817793
vt 0.981571 0.856211
vt 0.866318 0.817793
vt 0.866318 0.856211
vn -0.860937 -0.382835 -0.334999
vn -0.860937 -0.382835 -0.334999
vn -0.860937 -0.382835 -0.334999
vn -0.860937 -0.382835 -0.334999
vn -0.504060 0.730829 0.460231
vn -0.504060 0.730829 0.460231
vn -0.504060 0.730829 0.460231
vn -0.504060 0.730829 0.460231
vn 0.860937 0.382835 0.334999
vn 0.860937 0.382835 0.334999
vn 0.860937 0.382835 0.334999
vn 0.860937 0.382835 0.334999
vn 0.504060 -0.730829 -0.460231
vn 0.504060 -0.730829 -0.460231
vn 0.504060 -0.730829 -0.460231
vn 0.504060 -0.730829 -0.460231
vn -0.068634 -0.565089 0.822170
vn -0.068634 -0.565089 0.822170
vn -0.068634 -0.565089 0.822170
vn -0.068634 -0.565089 0.822170
vn 0.068634 0.565089 -0.822170
vn 0.068634 0.565089 -0.822170
vn 0.068634 0.565089 -0.822170
vn 0.068634 0.565089 -0.822170
s off
g pCube13
usemtl initialShadingGroup
f 85/151/149 86/152/150 88/154/151 87/153/152
f 87/153/153 88/154/154 90/156/155 89/155/156
f 89/155/157 90/156/158 92/158/159 91/157/160
f 91/157/161 92/158/162 86/160/163 85/159/164
f 86/152/165 92/161/166 90/162/167 88/154/168
f 91/163/169 85/151/170 87/153/171 89/164/172
g default
v 2.674407 0.179259 -1.380504
v 2.527191 0.019997 -1.312597
v 1.109211 1.777145 -1.026171
v 0.961996 1.617882 -0.958263
v 1.182044 1.801045 -0.812225
v 1.034828 1.641782 -0.744318
v 2.747240 0.203159 -1.166558
v 2.600024 0.043897 -1.098651
vt 0.443540 0.630454
vt 0.484299 0.630454
vt 0.443540 0.671213
vt 0.484299 0.671213
vt 0.443540 0.711972
vt 0.484299 0.711972
vt 0.443540 0.752731
vt 0.484299 0.752731
vt 0.443540 0.793490
vt 0.484299 0.793490
vt 0.525058 0.630454
vt 0.525058 0.671213
vt 0.402781 0.630454
vt 0.402781 0.671213
vn -0.320477 -0.105164 -0.941401
vn -0.320477 -0.105164 -0.941401
vn -0.320477 -0.105164 -0.941401
vn -0.320477 -0.105164 -0.941401
vn -0.691143 0.705578 0.156463
vn -0.691143 0.705578 0.156463
vn -0.691143 0.705578 0.156463
vn -0.691143 0.705578 0.156463
vn 0.320477 0.105164 0.941401
vn 0.320477 0.105164 0.941401
vn 0.320477 0.105164 0.941401
vn 0.320477 0.105164 0.941401
vn 0.691143 -0.705578 -0.156463
vn 0.691143 -0.705578 -0.156463
vn 0.691143 -0.705578 -0.156463
vn 0.691143 -0.705578 -0.156463
vn -0.647777 -0.700785 0.298805
vn -0.647777 -0.700785 0.298805
vn -0.647777 -0.700785 0.298805
vn -0.647777 -0.700785 0.298805
vn 0.647777 0.700785 -0.298805
vn 0.647777 0.700785 -0.298805
vn 0.647777 0.700785 -0.298805
vn 0.647777 0.700785 -0.298805
s off
g pCube16
usemtl initialShadingGroup
f 93/165/173 94/166/174 96/168/175 95/167/176
f 95/167/177 96/168/178 98/170/179 97/169/180
f 97/169/181 98/170/182 100/172/183 99/171/184
f 99/171/185 100/172/186 94/174/187 93/173/188
f 94/166/189 100/175/190 98/176/191 96/168/192
f 99/177/193 93/165/194 95/167/195 97/178/196
g default
v 2.952364 0.205939 1.535341
v 2.817137 0.054798 1.432781
v 1.394105 1.817670 1.214746
v 1.258878 1.666528 1.112186
v 1.299718 1.766244 1.414983
v 1.164491 1.615102 1.312423
v 2.857977 0.154513 1.735578
v 2.722750 0.003372 1.633018
vt 0.440201 0.820048
vt 0.478618 0.820048
vt 0.440201 0.858466
vt 0.478618 0.858466
vt 0.440201 0.896884
vt 0.478618 0.896884
vt 0.440201 0.935302
vt 0.478618 0.935302
vt 0.440201 0.973719
vt 0.478618 0.973719
vt 0.517036 0.820048
vt 0.517036 0.858466
vt 0.401783 0.820048
vt 0.401783 0.858466
vn 0.415322 0.226284 -0.881081
vn 0.415322 0.226284 -0.881081
vn 0.415322 0.226284 -0.881081
vn 0.415322 0.226284 -0.881081
vn -0.688080 0.711692 -0.141565
vn -0.688080 0.711692 -0.141565
vn -0.688080 0.711692 -0.141565
vn -0.688080 0.711692 -0.141565
vn -0.415322 -0.226284 0.881081
vn -0.415322 -0.226284 0.881081
vn -0.415322 -0.226284 0.881081
vn -0.415322 -0.226284 0.881081
vn 0.688080 -0.711692 0.141565
vn 0.688080 -0.711692 0.141565
vn 0.688080 -0.711692 0.141565
vn 0.688080 -0.711692 0.141565
vn -0.595024 -0.665049 -0.451283
vn -0.595024 -0.665049 -0.451283
vn -0.595024 -0.665049 -0.451283
vn -0.595024 -0.665049 -0.451283
vn 0.595024 0.665049 0.451283
vn 0.595024 0.665049 0.451283
vn 0.595024 0.665049 0.451283
vn 0.595024 0.665049 0.451283
s off
g pCube17
usemtl initialShadingGroup
f 101/179/197 102/180/198 104/182/199 103/181/200
f 103/181/201 104/182/202 106/184/203 105/183/204
f 105/183/205 106/184/206 108/186/207 107/185/208
f 107/185/209 108/186/210 102/188/211 101/187/212
f 102/180/213 108/189/214 106/190/215 104/182/216
f 107/191/217 101/179/218 103/181/219 105/192/220
g default
v 2.906896 0.184884 0.126804
v 2.744571 0.027265 0.105461
v 1.328810 1.809146 0.133737
v 1.166486 1.651527 0.112394
v 1.313985 1.793776 0.359994
v 1.151660 1.636157 0.338651
v 2.892070 0.169515 0.353062
v 2.729746 0.011896 0.331719
vt 0.603905 0.631489
vt 0.644147 0.631489
vt 0.603905 0.671730
vt 0.644147 0.671730
vt 0.603905 0.711972
vt 0.644147 0.711972
vt 0.603905 0.752214
vt 0.644147 0.752214
vt 0.603905 0.792455
vt 0.644147 0.792455
vt 0.684389 0.631489
vt 0.684389 0.671730
vt 0.563664 0.631489
vt 0.563664 0.671730
vn 0.065234 0.067629 -0.995576
vn 0.065234 0.067629 -0.995576
vn 0.065234 0.067629 -0.995576
vn 0.065234 0.067629 -0.995576
vn -0.696835 0.717225 0.003061
vn -0.696835 0.717225 0.003061
vn -0.696835 0.717225 0.003061
vn -0.696835 0.717225 0.003061
vn -0.065234 -0.067629 0.995576
vn -0.065234 -0.067629 0.995576
vn -0.065234 -0.067629 0.995576
vn -0.065234 -0.067629 0.995576
vn 0.696835 -0.717225 -0.003061
vn 0.696835 -0.717225 -0.003061
vn 0.696835 -0.717225 -0.003061
vn 0.696835 -0.717225 -0.003061
vn -0.714259 -0.693552 -0.093914
vn -0.714259 -0.693552 -0.093914
vn -0.714259 -0.693552 -0.093914
vn -0.714259 -0.693552 -0.093914
vn 0.714259 0.693552 0.093914
vn 0.714259 0.693552 0.093914
vn 0.714259 0.693552 0.093914
vn 0.714259 0.693552 0.093914
s off
g pCube18
usemtl initialShadingGroup
f 109/193/221 110/194/222 112/196/223 111/195/224
f 111/195/225 112/196/226 114/198/227 113/197/228
f 113/197/229 114/198/230 116/200/231 115/199/232
f 115/199/233 116/200/234 110/202/235 109/201/236
f 110/194/237 116/203/238 114/204/239 112/196/240
f 115/205/241 109/193/242 111/195/243 113/206/244
